<svg xmlns="http://www.w3.org/2000/svg" viewBox="0 0 209.12 42.34"><defs><style>.cls-1{font-size:28.28px;font-family:MaiandraGD-Regular, Maiandra GD;}.cls-1,.cls-2{fill:#282828;}</style></defs><g id="Layer_2" data-name="Layer 2"><g id="Layer_2-2" data-name="Layer 2"><text class="cls-1" transform="translate(42.08 31.19)">STUDENTITY</text><path class="cls-2" d="M18.21,31A15.59,15.59,0,1,1,30.66,11.6a15.62,15.62,0,0,0-4.85,1.68,10.48,10.48,0,1,0-8.09,12.57A15.65,15.65,0,0,0,18.21,31Z"/><path class="cls-2" d="M.71,31A15.59,15.59,0,1,0,12.87,11.42a15.66,15.66,0,0,1,.56,5.1A10.48,10.48,0,1,1,10.12,35.6a10.36,10.36,0,0,1-4.58-6.38A15.57,15.57,0,0,1,.71,31Z"/><circle class="cls-2" cx="5.27" cy="10.23" r="5.17"/><circle class="cls-2" cx="28.07" cy="30.94" r="5.17"/></g></g></svg>