<svg width="222" height="43" viewBox="0 0 222 43" fill="none" xmlns="http://www.w3.org/2000/svg">
<path d="M55.8084 14.8348C55.6879 13.8171 55.1991 13.0271 54.3421 12.4647C53.4852 11.9024 52.434 11.6212 51.1888 11.6212C50.2782 11.6212 49.4815 11.7685 48.7986 12.063C48.1224 12.3576 47.5935 12.7627 47.2119 13.2782C46.837 13.7937 46.6495 14.3795 46.6495 15.0357C46.6495 15.5846 46.7801 16.0566 47.0412 16.4517C47.309 16.84 47.6504 17.1647 48.0655 17.4258C48.4806 17.6802 48.9158 17.8911 49.371 18.0585C49.8263 18.2192 50.2448 18.3497 50.6264 18.4501L52.7152 19.0125C53.2508 19.1531 53.8467 19.3473 54.5028 19.595C55.1656 19.8427 55.7983 20.1808 56.4009 20.6093C57.0101 21.0311 57.5123 21.5734 57.9073 22.2362C58.3023 22.899 58.4998 23.7125 58.4998 24.6766C58.4998 25.7879 58.2085 26.7922 57.6261 27.6893C57.0503 28.5865 56.2067 29.2995 55.0953 29.8284C53.9907 30.3573 52.6483 30.6218 51.0683 30.6218C49.5953 30.6218 48.3199 30.3841 47.242 29.9088C46.1708 29.4334 45.3272 28.7706 44.7113 27.9203C44.102 27.0701 43.7572 26.0825 43.6769 24.9578H46.2478C46.3147 25.7344 46.5759 26.3771 47.0311 26.8859C47.4931 27.3881 48.0756 27.763 48.7785 28.0107C49.4882 28.2517 50.2515 28.3722 51.0683 28.3722C52.019 28.3722 52.8726 28.2183 53.6291 27.9103C54.3857 27.5956 54.9849 27.1604 55.4267 26.6047C55.8686 26.0424 56.0896 25.3862 56.0896 24.6364C56.0896 23.9535 55.8987 23.3978 55.5171 22.9693C55.1355 22.5408 54.6334 22.1927 54.0107 21.9249C53.3881 21.6571 52.7152 21.4228 51.9922 21.2219L49.4614 20.4988C47.8546 20.0369 46.5825 19.3774 45.6452 18.5204C44.7079 17.6635 44.2393 16.542 44.2393 15.1562C44.2393 14.0046 44.5506 13.0003 45.1732 12.1434C45.8026 11.2797 46.6462 10.6102 47.704 10.1349C48.7685 9.65281 49.9569 9.41179 51.2691 9.41179C52.5947 9.41179 53.7731 9.64946 54.8041 10.1248C55.8351 10.5935 56.6519 11.2362 57.2545 12.053C57.8638 12.8698 58.1851 13.7971 58.2186 14.8348H55.8084ZM61.4699 11.9024V9.69298H76.8953V11.9024H70.4279V30.2603H67.9373V11.9024H61.4699ZM94.2364 9.69298H96.727V23.3108C96.727 24.7167 96.3956 25.9721 95.7328 27.0767C95.0767 28.1747 94.1494 29.0418 92.951 29.6778C91.7526 30.3071 90.3466 30.6218 88.7331 30.6218C87.1196 30.6218 85.7136 30.3071 84.5152 29.6778C83.3168 29.0418 82.3861 28.1747 81.7233 27.0767C81.0672 25.9721 80.7392 24.7167 80.7392 23.3108V9.69298H83.2297V23.1099C83.2297 24.1142 83.4507 25.008 83.8925 25.7913C84.3344 26.5679 84.9637 27.1805 85.7805 27.6291C86.604 28.071 87.5882 28.2919 88.7331 28.2919C89.8779 28.2919 90.8621 28.071 91.6856 27.6291C92.5091 27.1805 93.1384 26.5679 93.5736 25.7913C94.0155 25.008 94.2364 24.1142 94.2364 23.1099V9.69298ZM108.048 30.2603H101.701V9.69298H108.329C110.324 9.69298 112.031 10.1047 113.45 10.9282C114.87 11.745 115.958 12.92 116.714 14.4532C117.471 15.9797 117.849 17.8074 117.849 19.9364C117.849 22.0789 117.468 23.9234 116.704 25.4699C115.941 27.0098 114.83 28.1948 113.37 29.025C111.911 29.8485 110.136 30.2603 108.048 30.2603ZM104.191 28.0509H107.887C109.587 28.0509 110.997 27.7228 112.115 27.0667C113.233 26.4106 114.066 25.4766 114.615 24.2648C115.164 23.053 115.439 21.6102 115.439 19.9364C115.439 18.2761 115.168 16.8467 114.625 15.6482C114.083 14.4431 113.273 13.5192 112.195 12.8765C111.117 12.2271 109.775 11.9024 108.168 11.9024H104.191V28.0509ZM122.027 30.2603V9.69298H134.44V11.9024H124.517V18.8518H133.797V21.0612H124.517V28.0509H134.6V30.2603H122.027ZM155.238 9.69298V30.2603H152.828L141.62 14.1117H141.419V30.2603H138.929V9.69298H141.339L152.587 25.8817H152.787V9.69298H155.238ZM159.097 11.9024V9.69298H174.522V11.9024H168.055V30.2603H165.564V11.9024H159.097ZM180.856 9.69298V30.2603H178.366V9.69298H180.856ZM184.725 11.9024V9.69298H200.151V11.9024H193.683V30.2603H191.193V11.9024H184.725ZM202.227 9.69298H205.079L210.783 19.2937H211.025L216.729 9.69298H219.581L212.149 21.7843V30.2603H209.659V21.7843L202.227 9.69298Z" fill="white"/>
<path d="M18.2001 31.3501C15.2212 31.856 12.1595 31.4853 9.38744 30.2832C6.61535 29.081 4.25232 27.0993 2.58578 24.5789C0.919244 22.0585 0.0210193 19.1082 0.000364406 16.0867C-0.0202904 13.0653 0.837514 10.1029 2.46944 7.55999C4.10136 5.01707 6.43708 3.00318 9.19248 1.76326C11.9479 0.523346 15.0042 0.110849 17.9897 0.575946C20.9752 1.04104 23.7613 2.36369 26.0089 4.383C28.2566 6.40232 29.869 9.03127 30.6501 11.9501C28.9519 12.2388 27.3131 12.8065 25.8001 13.6301C25.3451 11.6158 24.3051 9.78085 22.8108 8.3556C21.3164 6.93035 19.4343 5.97835 17.4007 5.61912C15.3672 5.2599 13.2728 5.50946 11.3806 6.33648C9.4884 7.1635 7.8827 8.53111 6.7651 10.2676C5.64751 12.0041 5.06784 14.032 5.09887 16.0969C5.12991 18.1617 5.77027 20.1713 6.93956 21.8734C8.10884 23.5755 9.75492 24.8942 11.6711 25.664C13.5873 26.4338 15.6883 26.6203 17.7101 26.2001C17.5866 27.9321 17.7522 29.6725 18.2001 31.3501Z" fill="white"/>
<path d="M0.700073 31.35C1.52396 34.2572 3.17495 36.8623 5.45221 38.8485C7.72946 40.8346 10.5348 42.1161 13.527 42.5372C16.5193 42.9582 19.5693 42.5007 22.3063 41.2201C25.0432 39.9395 27.349 37.8912 28.9432 35.3242C30.5374 32.7573 31.3512 29.7824 31.2857 26.7614C31.2202 23.7404 30.2782 20.8036 28.5743 18.3081C26.8704 15.8127 24.478 13.8662 21.6881 12.7054C18.8983 11.5447 15.8312 11.2197 12.8601 11.77C13.3258 13.4277 13.5151 15.1508 13.4201 16.87C15.1016 16.4925 16.8503 16.5354 18.5113 16.9951C20.1722 17.4547 21.6942 18.3169 22.9424 19.5053C24.1905 20.6936 25.1264 22.1714 25.667 23.8078C26.2076 25.4442 26.3364 27.1887 26.0418 28.8867C25.7472 30.5848 25.0384 32.184 23.9782 33.5426C22.918 34.9013 21.5391 35.9776 19.9636 36.6761C18.3881 37.3746 16.6646 37.6737 14.9459 37.5471C13.2272 37.4204 11.5662 36.8719 10.1101 35.95C7.80524 34.5069 6.16024 32.2154 5.53007 29.57C4.02998 30.4272 2.39768 31.0288 0.700073 31.35Z" fill="white"/>
<path d="M5.26009 15.7502C8.1154 15.7502 10.4301 13.4355 10.4301 10.5802C10.4301 7.72484 8.1154 5.41016 5.26009 5.41016C2.40478 5.41016 0.0900879 7.72484 0.0900879 10.5802C0.0900879 13.4355 2.40478 15.7502 5.26009 15.7502Z" fill="white"/>
<path d="M28.0601 36.4601C30.9154 36.4601 33.2301 34.1454 33.2301 31.2901C33.2301 28.4348 30.9154 26.1201 28.0601 26.1201C25.2048 26.1201 22.8901 28.4348 22.8901 31.2901C22.8901 34.1454 25.2048 36.4601 28.0601 36.4601Z" fill="white"/>
</svg>
